<svg xmlns="http://www.w3.org/2000/svg" viewBox="0 0 100 100" fill-rule="evenodd"><g class="t-group-origins"><path d="M79.595 72.861 57.094 50.36l22.379-22.38a4.676 4.676 0 0 0-6.611-6.61L50.483 43.747 28.105 21.37a4.676 4.676 0 0 0-6.611 6.611l22.378 22.38L21.369 72.86a4.674 4.674 0 0 0 3.306 7.98 4.66 4.66 0 0 0 3.306-1.369L50.483 56.97l22.501 22.502a4.66 4.66 0 0 0 3.306 1.37 4.66 4.66 0 0 0 3.306-1.37 4.677 4.677 0 0 0-.001-6.61Z" stroke-width="0" stroke="#ffffff" fill="#ffffff" stroke-width-old="0"></path></g></svg>
