<?xml version="1.0" encoding="UTF-8"?> <svg xmlns="http://www.w3.org/2000/svg" width="50" height="26" viewBox="0 0 50 26" fill="none"><path d="M49.6695 12.1989L38.3062 0.835418C37.898 0.358766 37.1806 0.303201 36.7039 0.711495C36.2273 1.11969 36.1717 1.83706 36.58 2.31371C36.6181 2.35815 36.6595 2.39965 36.7039 2.43764L46.1242 11.8693H1.13631C0.50878 11.8693 0 12.3781 0 13.0057C0 13.6333 0.50878 14.142 1.13631 14.142H46.1242L36.7039 23.5623C36.2273 23.9705 36.1717 24.6878 36.58 25.1645C36.9883 25.6411 37.7056 25.6967 38.1822 25.2884C38.2267 25.2503 38.2682 25.2089 38.3062 25.1645L49.6696 13.801C50.1102 13.358 50.1102 12.6421 49.6695 12.1989Z" fill="black"></path></svg> 