<?xml version="1.0" encoding="UTF-8"?> <svg xmlns="http://www.w3.org/2000/svg" width="50" height="50" viewBox="0 0 50 50" fill="none"><g clip-path="url(#clip0_1529_24)"><path d="M25 50C38.8071 50 50 38.8071 50 25C50 11.1929 38.8071 0 25 0C11.1929 0 0 11.1929 0 25C0 38.8071 11.1929 50 25 50Z" fill="#039BE5"></path><path d="M11.4396 24.4583L35.5438 15.1646C36.6626 14.7604 37.6396 15.4375 37.2771 17.1292L37.2792 17.1271L33.1751 36.4625C32.8709 37.8333 32.0563 38.1667 30.9167 37.5208L24.6667 32.9146L21.6521 35.8188C21.3188 36.1521 21.0376 36.4333 20.3917 36.4333L20.8355 30.0729L32.4188 19.6083C32.923 19.1646 32.3063 18.9146 31.6417 19.3563L17.3271 28.3688L11.1563 26.4438C9.81673 26.0188 9.78756 25.1042 11.4396 24.4583Z" fill="white"></path></g><defs><clipPath id="clip0_1529_24"><rect width="50" height="50" fill="white"></rect></clipPath></defs></svg> 