<?xml version="1.0" encoding="UTF-8"?> <svg xmlns="http://www.w3.org/2000/svg" width="50" height="50" viewBox="0 0 50 50" fill="none"><g clip-path="url(#clip0_1529_33)"><path d="M24.972 49.6693C38.612 49.6693 49.6693 38.612 49.6693 24.9721C49.6693 11.3322 38.612 0.274811 24.972 0.274811C11.3321 0.274811 0.27478 11.3322 0.27478 24.9721C0.27478 38.612 11.3321 49.6693 24.972 49.6693Z" fill="#4BAE4F"></path><path d="M12.6827 38.4184C12.3934 38.4184 12.1114 38.3037 11.9022 38.0924C11.6267 37.8136 11.5203 37.4091 11.624 37.0304L13.2425 31.1195C12.2233 29.1997 11.6871 27.045 11.6877 24.8596C11.6904 17.5075 17.6732 11.5258 25.0236 11.5258C28.5899 11.5269 31.9405 12.916 34.4574 15.4367C36.9749 17.957 38.3602 21.3076 38.3591 24.8705C38.3563 32.2237 32.3741 38.206 25.0231 38.206C22.943 38.2054 20.8844 37.7164 19.0376 36.7883L12.9609 38.3821C12.8693 38.4068 12.7754 38.4184 12.6827 38.4184ZM19.1704 34.5211C19.3526 34.5211 19.5337 34.5667 19.6962 34.6551C21.3212 35.5414 23.1615 36.0101 25.0192 36.0107C31.1645 36.0107 36.1615 31.013 36.1643 24.8694C36.1654 21.8926 35.0079 19.0936 32.9048 16.9883C30.8017 14.8824 28.0027 13.7222 25.0236 13.7211C18.8833 13.7211 13.8863 18.7182 13.8835 24.8612C13.883 26.8178 14.3972 28.7442 15.3703 30.4302C15.5168 30.6843 15.5552 30.9861 15.4784 31.2688L14.2441 35.7763L18.8927 34.5568C18.9832 34.5332 19.0771 34.5211 19.1704 34.5211Z" fill="white"></path><path d="M20.2384 25.1071C20.082 24.8985 18.9624 23.4123 18.9624 21.874C18.9624 20.3356 19.7697 19.5793 20.0562 19.2665C20.3427 18.9536 20.6813 18.8757 20.8899 18.8757C21.0984 18.8757 21.307 18.8779 21.4892 18.8867C21.6813 18.8966 21.9387 18.8137 22.1923 19.4234C22.453 20.0491 23.0775 21.588 23.156 21.7444C23.2345 21.9008 23.2861 22.0831 23.1823 22.2922C23.0781 22.5007 23.0259 22.6308 22.8701 22.8135C22.7136 22.9963 22.5419 23.2213 22.4008 23.3613C22.2444 23.5171 22.0814 23.6862 22.2636 23.999C22.4458 24.3118 23.0731 25.3354 24.0023 26.1647C25.196 27.23 26.2031 27.5598 26.5159 27.7162C26.8282 27.8726 27.011 27.8468 27.1932 27.6377C27.3754 27.4292 27.9747 26.725 28.1833 26.4122C28.3918 26.0994 28.5998 26.1515 28.8863 26.2558C29.1728 26.3601 30.7095 27.1164 31.0218 27.2728C31.3341 27.4292 31.5426 27.5077 31.6211 27.6377C31.6996 27.7684 31.6996 28.394 31.4389 29.124C31.1782 29.8539 29.9296 30.5207 29.3292 30.6102C28.7908 30.6909 28.1092 30.7244 27.3606 30.4862C26.9067 30.3424 26.3244 30.1497 25.5785 29.8276C22.4425 28.4731 20.3954 25.3157 20.2384 25.1071Z" fill="white"></path></g><defs><clipPath id="clip0_1529_33"><rect width="50" height="50" fill="white"></rect></clipPath></defs></svg> 