<?xml version="1.0" encoding="UTF-8"?> <svg xmlns="http://www.w3.org/2000/svg" width="80" height="80" viewBox="0 0 80 80" fill="none"><circle cx="40" cy="40" r="40" fill="#004B85"></circle><path d="M45.5826 35.5429H51.2958" stroke="white" stroke-width="1.1" stroke-miterlimit="10" stroke-linecap="round" stroke-linejoin="round"></path><path d="M57.0091 29.0478H45.5826" stroke="white" stroke-width="1.1" stroke-miterlimit="10" stroke-linecap="round" stroke-linejoin="round"></path><path d="M57.0091 32.2953H45.5826" stroke="white" stroke-width="1.1" stroke-miterlimit="10" stroke-linecap="round" stroke-linejoin="round"></path><mask id="mask0_1517_486" style="mask-type:luminance" maskUnits="userSpaceOnUse" x="15" y="15" width="50" height="50"><path d="M15 15H65V65H15V15Z" fill="white"></path></mask><g mask="url(#mask0_1517_486)"><path d="M20.9722 22.8604C20.9722 23.2686 20.6412 23.5995 20.233 23.5995C19.8247 23.5995 19.4938 23.2686 19.4938 22.8604C19.4938 22.4521 19.8247 22.1212 20.233 22.1212C20.6412 22.1212 20.9722 22.4521 20.9722 22.8604Z" fill="white"></path><path d="M24.1941 22.8604C24.1941 23.2686 23.8632 23.5995 23.455 23.5995C23.0467 23.5995 22.7157 23.2686 22.7157 22.8604C22.7157 22.4521 23.0467 22.1212 23.455 22.1212C23.8632 22.1212 24.1941 22.4521 24.1941 22.8604Z" fill="white"></path><path d="M27.4161 22.8604C27.4161 23.2686 27.0851 23.5995 26.6769 23.5995C26.2686 23.5995 25.9377 23.2686 25.9377 22.8604C25.9377 22.4521 26.2686 22.1212 26.6769 22.1212C27.0851 22.1212 27.4161 22.4521 27.4161 22.8604Z" fill="white"></path><path d="M15.7324 25.6044H60.3488" stroke="white" stroke-width="1.1" stroke-miterlimit="10" stroke-linecap="round" stroke-linejoin="round"></path><path d="M60.3488 36.886V21.6935C60.3488 20.8224 59.6428 20.1162 58.7717 20.1162H17.3096C16.4385 20.1162 15.7324 20.8224 15.7324 21.6935V49.5617C15.7324 50.4327 16.4385 51.1388 17.3096 51.1388H45.025" stroke="white" stroke-width="1.1" stroke-miterlimit="10" stroke-linecap="round" stroke-linejoin="round"></path><path d="M62.9154 45.629C62.9097 45.629 62.904 45.629 62.8983 45.6289C62.6464 45.6259 62.4292 45.4539 62.3532 45.2135C62.2214 44.7968 62.054 44.3959 61.8551 44.0139C61.7385 43.7901 61.7701 43.5146 61.9464 43.3338C61.9507 43.3295 61.955 43.3251 61.9593 43.3207C62.4874 42.7926 62.4874 41.9365 61.9593 41.4085L61.25 40.6992C60.722 40.1711 59.8658 40.1711 59.3378 40.6992C59.3334 40.7035 59.329 40.7078 59.3246 40.7121C59.1438 40.8883 58.8685 40.9201 58.6446 40.8035C58.2626 40.6045 57.8617 40.4372 57.4449 40.3052C57.2046 40.2294 57.0326 40.0122 57.0296 39.7601C57.0296 39.7545 57.0295 39.7488 57.0295 39.7431C57.0295 38.9963 56.4241 38.3909 55.6773 38.3909H54.6742C53.9274 38.3909 53.3221 38.9963 53.3221 39.7431C53.3221 39.7488 53.3221 39.7545 53.322 39.7601C53.3189 40.0122 53.1469 40.2294 52.9066 40.3052C52.4898 40.4372 52.0889 40.6046 51.707 40.8035C51.4832 40.9201 51.2077 40.8883 51.027 40.7121C51.0226 40.7078 51.0182 40.7035 51.0138 40.6992C50.4857 40.1711 49.6296 40.1711 49.1016 40.6992L48.3922 41.4085C47.8642 41.9365 47.8642 42.7926 48.3923 43.3207C48.3966 43.3251 48.401 43.3295 48.4052 43.3338C48.5813 43.5146 48.6131 43.7901 48.4965 44.0139C48.2976 44.3959 48.1302 44.7968 47.9984 45.2135C47.9224 45.4538 47.7054 45.6259 47.4534 45.6289C47.448 45.629 47.4424 45.629 47.4368 45.629C46.6924 45.6294 46.084 46.1996 46.084 46.9439V48.0215C46.084 48.7659 46.6924 49.3361 47.4368 49.3365C47.4424 49.3365 47.448 49.3365 47.4534 49.3366C47.7054 49.3395 47.9224 49.5117 47.9984 49.7519C48.1302 50.1686 48.2976 50.5696 48.4965 50.9515C48.6131 51.1754 48.5813 51.4508 48.4052 51.6316C48.401 51.636 48.3966 51.6404 48.3923 51.6448C47.8642 52.1728 47.8642 53.0289 48.3923 53.557L49.1016 54.2663C49.6296 54.7944 50.4857 54.7944 51.0138 54.2663C51.0182 54.2619 51.0226 54.2576 51.027 54.2533C51.2076 54.0771 51.4831 54.0454 51.707 54.162C52.0889 54.3609 52.4898 54.5283 52.9066 54.6601C53.1469 54.7361 53.3189 54.9532 53.322 55.2053C53.3221 55.211 53.3221 55.2167 53.3221 55.2223C53.3221 55.9692 53.9274 56.5746 54.6742 56.5746H55.6773C56.4241 56.5746 57.0295 55.9692 57.0295 55.2223C57.0295 55.2167 57.0296 55.211 57.0296 55.2053C57.0326 54.9532 57.2046 54.7361 57.4449 54.6601C57.8617 54.5283 58.2626 54.361 58.6446 54.162C58.8685 54.0454 59.1438 54.0771 59.3246 54.2533C59.329 54.2576 59.3334 54.2619 59.3378 54.2663C59.8658 54.7944 60.722 54.7944 61.25 54.2663L61.9593 53.557C62.4874 53.0289 62.4874 52.1728 61.9593 51.6448C61.955 51.6404 61.9507 51.636 61.9464 51.6316C61.7701 51.4508 61.7385 51.1754 61.8551 50.9515C62.054 50.5696 62.2214 50.1686 62.3532 49.7519C62.4292 49.5116 62.6464 49.3395 62.8983 49.3366C62.904 49.3365 62.9097 49.3365 62.9154 49.3365C63.6622 49.3365 64.2676 48.7311 64.2676 47.9842V46.9812C64.2676 46.2343 63.6622 45.629 62.9154 45.629Z" stroke="white" stroke-width="1.1" stroke-miterlimit="10" stroke-linecap="round" stroke-linejoin="round"></path><path d="M59.5983 47.4827C59.5983 49.9252 57.6183 51.9052 55.1758 51.9052C52.7333 51.9052 50.7532 49.9252 50.7532 47.4827C50.7532 45.0402 52.7333 43.0603 55.1758 43.0603C57.6183 43.0603 59.5983 45.0402 59.5983 47.4827Z" stroke="white" stroke-width="1.1" stroke-miterlimit="10" stroke-linecap="round" stroke-linejoin="round"></path><path d="M45.6657 59.8837H30.4156C29.7184 59.8837 29.1533 59.3186 29.1533 58.6213C29.1533 57.0663 30.4138 55.8058 31.9689 55.8058H44.1125C45.6674 55.8058 46.928 57.0663 46.928 58.6213C46.928 59.3186 46.3628 59.8837 45.6657 59.8837Z" stroke="white" stroke-width="1.1" stroke-miterlimit="10" stroke-linecap="round" stroke-linejoin="round"></path><path d="M34.0987 51.1388L33.1677 55.8058" stroke="white" stroke-width="1.1" stroke-miterlimit="10" stroke-linecap="round" stroke-linejoin="round"></path><path d="M42.9135 55.8058L41.9825 51.1388" stroke="white" stroke-width="1.1" stroke-miterlimit="10" stroke-linecap="round" stroke-linejoin="round"></path><path d="M41.5023 35.4639V29.1267C41.5023 28.9052 41.3226 28.7255 41.101 28.7255H19.8952C19.6735 28.7255 19.4938 28.9052 19.4938 29.1267V35.4639C19.4938 35.6856 19.6735 35.8653 19.8952 35.8653H41.101C41.3226 35.8653 41.5023 35.6856 41.5023 35.4639Z" stroke="white" stroke-width="1.1" stroke-miterlimit="10" stroke-linecap="round" stroke-linejoin="round"></path><path d="M24.5977 39.9983H19.8951C19.6736 39.9983 19.4938 40.1781 19.4938 40.3996V46.7369C19.4938 46.9584 19.6736 47.1381 19.8951 47.1381H24.5977C24.8194 47.1381 24.999 46.9584 24.999 46.7369V40.3996C24.999 40.1781 24.8194 39.9983 24.5977 39.9983Z" stroke="white" stroke-width="1.1" stroke-miterlimit="10" stroke-linecap="round" stroke-linejoin="round"></path><path d="M28.2647 40.3997V46.7369C28.2647 46.9585 28.4443 47.1382 28.666 47.1382H41.101C41.3227 47.1382 41.5024 46.9585 41.5024 46.7369V40.3997C41.5024 40.178 41.3227 39.9983 41.101 39.9983H28.666C28.4443 39.9983 28.2647 40.178 28.2647 40.3997Z" stroke="white" stroke-width="1.1" stroke-miterlimit="10" stroke-linecap="round" stroke-linejoin="round"></path></g></svg> 