<?xml version="1.0" encoding="UTF-8"?> <svg xmlns="http://www.w3.org/2000/svg" width="50" height="26" viewBox="0 0 50 26" fill="none"><path d="M0.330461 12.1989L11.6938 0.835418C12.102 0.358766 12.8194 0.303201 13.2961 0.711495C13.7727 1.11969 13.8283 1.83706 13.42 2.31371C13.3819 2.35815 13.3405 2.39965 13.2961 2.43764L3.87581 11.8693H48.8637C49.4912 11.8693 50 12.3781 50 13.0057C50 13.6333 49.4912 14.142 48.8637 14.142H3.87581L13.2961 23.5623C13.7727 23.9705 13.8283 24.6878 13.42 25.1645C13.0117 25.6411 12.2944 25.6967 11.8178 25.2884C11.7733 25.2503 11.7318 25.2089 11.6938 25.1645L0.330363 13.801C-0.110157 13.358 -0.110156 12.6421 0.330461 12.1989Z" fill="black"></path></svg> 