<?xml version="1.0" encoding="UTF-8"?> <svg xmlns="http://www.w3.org/2000/svg" width="1010" height="138" viewBox="0 0 1010 138" fill="none"><path d="M0 128.999L0.762451 117.477L10.3594 123.899L0 128.999ZM1008.5 0.5L1009.37 0.999823C1007.66 3.9565 1005.87 6.73433 1004 9.34167L1003.18 8.75812L1002.37 8.17457C1004.2 5.62351 1005.96 2.90177 1007.63 0.000176579L1008.5 0.5ZM990.172 23.0823L990.826 23.8396C985.763 28.2065 980.299 31.7716 974.463 34.6399L974.022 33.7424L973.581 32.8449C979.27 30.0491 984.59 26.5771 989.519 22.3251L990.172 23.0823ZM955.779 40.2506L956.015 41.2224C949.865 42.7146 943.414 43.6838 936.687 44.22L936.608 43.2232L936.528 42.2264C943.167 41.6972 949.511 40.7424 955.543 39.2788L955.779 40.2506ZM917.178 43.6639L917.151 44.6636C910.853 44.4951 904.357 44.0612 897.677 43.4203L897.773 42.4249L897.868 41.4295C904.511 42.0668 910.961 42.4973 917.205 42.6643L917.178 43.6639ZM878.508 40.1227L878.37 41.1131C872.089 40.2363 865.668 39.2369 859.12 38.1565L859.283 37.1698L859.446 36.1831C865.983 37.2618 872.386 38.2584 878.647 39.1323L878.508 40.1227ZM840.096 33.8731L839.922 34.8579C833.642 33.749 827.25 32.6026 820.773 31.455L820.948 30.4703L821.122 29.4857C827.608 30.6349 833.987 31.7789 840.269 32.8884L840.096 33.8731ZM801.816 27.1478L801.649 28.1339C795.337 27.0686 788.947 26.0292 782.484 25.0434L782.635 24.0549L782.786 23.0663C789.261 24.0541 795.662 25.0952 801.982 26.1617L801.816 27.1478ZM763.393 21.3316L763.265 22.3233C756.897 21.4992 750.469 20.7504 743.986 20.102L744.086 19.1069L744.185 18.1119C750.69 18.7625 757.137 19.5135 763.522 20.3399L763.393 21.3316ZM724.717 17.5025L724.652 18.5004C718.239 18.0853 711.779 17.7887 705.279 17.6338L705.302 16.6341L705.326 15.6344C711.856 15.79 718.343 16.0878 724.782 16.5045L724.717 17.5025ZM685.87 16.6118L685.893 17.6115C679.472 17.7555 673.018 18.0561 666.535 18.5348L666.462 17.5375L666.388 16.5402C672.907 16.0589 679.395 15.7567 685.848 15.612L685.87 16.6118ZM647.133 19.5017L647.262 20.4933C640.909 21.3209 634.533 22.3369 628.14 23.561L627.951 22.5789L627.763 21.5967C634.197 20.3649 640.612 19.3426 647.004 18.5101L647.133 19.5017ZM608.995 26.8229L609.244 27.7914C603.059 29.3822 596.861 31.1839 590.655 33.2141L590.344 32.2637L590.033 31.3133C596.281 29.2694 602.52 27.4557 608.746 25.8544L608.995 26.8229ZM572.079 38.9057L572.451 39.8338C566.536 42.2056 560.618 44.7999 554.699 47.6318L554.268 46.7297L553.836 45.8277C559.794 42.977 565.752 40.3653 571.706 37.9775L572.079 38.9057ZM536.99 55.6849L537.478 56.5578C531.956 59.6446 526.437 62.9515 520.923 66.4908L520.383 65.6493L519.843 64.8077C525.391 61.2466 530.945 57.9188 536.502 54.812L536.99 55.6849ZM504.391 76.5885L504.979 77.3973C502.354 79.3058 499.731 81.2699 497.111 83.2911L496.5 82.4993L495.889 81.7074C498.525 79.6748 501.163 77.6993 503.803 75.7797L504.391 76.5885ZM496.5 82.4993L497.111 83.2911C494.289 85.467 491.473 87.5653 488.661 89.588L488.077 88.7763L487.493 87.9645C490.287 85.9549 493.085 83.8699 495.889 81.7074L496.5 82.4993ZM470.979 100.198L471.504 101.049C465.489 104.762 459.498 108.143 453.532 111.212L453.075 110.323L452.617 109.434C458.536 106.388 464.482 103.033 470.453 99.3471L470.979 100.198ZM434.393 118.972L434.774 119.897C428.253 122.585 421.766 124.919 415.313 126.928L415.016 125.974L414.719 125.019C421.114 123.027 427.546 120.713 434.011 118.048L434.393 118.972ZM395.079 131.195L395.288 132.173C388.437 133.636 381.63 134.755 374.869 135.566L374.749 134.573L374.63 133.58C381.333 132.776 388.081 131.667 394.87 130.217L395.079 131.195ZM354.203 136.125L354.235 137.124C347.287 137.349 340.392 137.276 333.552 136.945L333.6 135.947L333.648 134.948C340.438 135.276 347.279 135.348 354.171 135.125L354.203 136.125ZM313.07 134.197L312.95 135.189C306.079 134.359 299.268 133.301 292.52 132.057L292.701 131.074L292.883 130.09C299.593 131.327 306.363 132.379 313.19 133.204L313.07 134.197ZM272.542 126.797L272.31 127.77C265.576 126.164 258.909 124.41 252.313 122.55L252.584 121.587L252.855 120.625C259.429 122.479 266.069 124.226 272.774 125.824L272.542 126.797ZM232.823 115.673L232.523 116.627C225.903 114.545 219.36 112.397 212.897 110.232L213.215 109.283L213.533 108.335C219.988 110.498 226.519 112.642 233.123 114.719L232.823 115.673ZM193.703 102.656L193.38 103.602C186.784 101.347 180.282 99.1254 173.871 96.9903L174.188 96.0416L174.503 95.0928C180.922 97.2308 187.432 99.4546 194.027 101.709L193.703 102.656ZM154.518 89.7283L154.226 90.6847C147.514 88.6348 140.918 86.752 134.441 85.1035L134.687 84.1344L134.934 83.1653C141.449 84.8234 148.076 86.7153 154.81 88.7719L154.518 89.7283ZM114.551 79.7687L114.379 80.7539C107.435 79.5482 100.648 78.7234 94.0229 78.3717L94.0759 77.3731L94.1289 76.3745C100.846 76.7311 107.713 77.5666 114.722 78.7834L114.551 79.7687ZM73.5096 77.9499L73.6277 78.9429C66.8219 79.7528 60.2119 81.2324 53.8019 83.4988L53.4686 82.556L53.1352 81.6132C59.696 79.2934 66.4516 77.7828 73.3914 76.9569L73.5096 77.9499ZM35.0889 91.6384L35.634 92.4768C30.1993 96.0106 24.9232 100.285 19.8118 105.391L19.105 104.684L18.3983 103.976C23.6025 98.7773 28.986 94.4139 34.5438 90.8001L35.0889 91.6384ZM5.88959 120.286L6.6991 120.873C6.40552 121.278 6.11255 121.687 5.82019 122.098L5.00488 121.519L4.18958 120.94C4.48572 120.523 4.78253 120.109 5.08008 119.699L5.88959 120.286Z" fill="#003366"></path></svg> 