<?xml version="1.0" encoding="UTF-8"?> <svg xmlns="http://www.w3.org/2000/svg" width="1010" height="138" viewBox="0 0 1010 138" fill="none"><path d="M1009.5 128.999L1008.74 117.477L999.141 123.899L1009.5 128.999ZM1 0.5L0.133873 0.999823C1.8401 3.9565 3.63095 6.73433 5.50455 9.34167L6.31663 8.75812L7.12871 8.17457C5.29555 5.62351 3.54057 2.90177 1.86613 0.000176579L1 0.5ZM19.3275 23.0823L18.6744 23.8396C23.7371 28.2065 29.2008 31.7716 35.0373 34.6399L35.4784 33.7424L35.9194 32.8449C30.2304 30.0491 24.9102 26.5771 19.9807 22.3251L19.3275 23.0823ZM53.7209 40.2506L53.4851 41.2224C59.6352 42.7146 66.0858 43.6838 72.813 44.22L72.8924 43.2232L72.9719 42.2264C66.3332 41.6972 59.9888 40.7424 53.9567 39.2788L53.7209 40.2506ZM92.3221 43.6639L92.3488 44.6636C98.6469 44.4951 105.143 44.0612 111.823 43.4203L111.727 42.4249L111.632 41.4295C104.989 42.0668 98.5392 42.4973 92.2953 42.6643L92.3221 43.6639ZM130.992 40.1227L131.13 41.1131C137.411 40.2363 143.832 39.2369 150.38 38.1565L150.217 37.1698L150.054 36.1831C143.517 37.2618 137.114 38.2584 130.853 39.1323L130.992 40.1227ZM169.404 33.8731L169.578 34.8579C175.858 33.749 182.25 32.6026 188.727 31.455L188.552 30.4703L188.378 29.4857C181.892 30.6349 175.513 31.7789 169.231 32.8884L169.404 33.8731ZM207.684 27.1478L207.851 28.1339C214.163 27.0686 220.553 26.0292 227.016 25.0434L226.865 24.0549L226.714 23.0663C220.239 24.0541 213.838 25.0952 207.518 26.1617L207.684 27.1478ZM246.107 21.3316L246.235 22.3233C252.603 21.4992 259.031 20.7504 265.514 20.102L265.414 19.1069L265.315 18.1119C258.81 18.7625 252.363 19.5135 245.978 20.3399L246.107 21.3316ZM284.783 17.5025L284.848 18.5004C291.261 18.0853 297.721 17.7887 304.221 17.6338L304.198 16.6341L304.174 15.6344C297.644 15.79 291.157 16.0878 284.718 16.5045L284.783 17.5025ZM323.63 16.6118L323.607 17.6115C330.028 17.7555 336.482 18.0561 342.965 18.5348L343.038 17.5375L343.112 16.5402C336.593 16.0589 330.105 15.7567 323.652 15.612L323.63 16.6118ZM362.367 19.5017L362.238 20.4933C368.591 21.3209 374.967 22.3369 381.36 23.561L381.549 22.5789L381.737 21.5967C375.303 20.3649 368.888 19.3426 362.496 18.5101L362.367 19.5017ZM400.505 26.8229L400.256 27.7914C406.441 29.3822 412.639 31.1839 418.845 33.2141L419.156 32.2637L419.467 31.3133C413.219 29.2694 406.98 27.4557 400.754 25.8544L400.505 26.8229ZM437.421 38.9057L437.049 39.8338C442.964 42.2056 448.882 44.7999 454.801 47.6318L455.232 46.7297L455.664 45.8277C449.706 42.977 443.748 40.3653 437.794 37.9775L437.421 38.9057ZM472.51 55.6849L472.022 56.5578C477.544 59.6446 483.063 62.9515 488.577 66.4908L489.117 65.6493L489.657 64.8077C484.109 61.2466 478.555 57.9188 472.998 54.812L472.51 55.6849ZM505.109 76.5885L504.521 77.3973C507.146 79.3058 509.769 81.2699 512.389 83.2911L513 82.4993L513.611 81.7074C510.975 79.6748 508.337 77.6993 505.697 75.7797L505.109 76.5885ZM513 82.4993L512.389 83.2911C515.211 85.467 518.027 87.5653 520.839 89.588L521.423 88.7763L522.007 87.9645C519.213 85.9549 516.415 83.8699 513.611 81.7074L513 82.4993ZM538.521 100.198L537.996 101.049C544.011 104.762 550.002 108.143 555.968 111.212L556.425 110.323L556.883 109.434C550.964 106.388 545.018 103.033 539.047 99.3471L538.521 100.198ZM575.107 118.972L574.726 119.897C581.247 122.585 587.734 124.919 594.187 126.928L594.484 125.974L594.781 125.019C588.386 123.027 581.954 120.713 575.489 118.048L575.107 118.972ZM614.421 131.195L614.212 132.173C621.063 133.636 627.87 134.755 634.631 135.566L634.751 134.573L634.87 133.58C628.167 132.776 621.419 131.667 614.63 130.217L614.421 131.195ZM655.297 136.125L655.265 137.124C662.213 137.349 669.108 137.276 675.948 136.945L675.9 135.947L675.852 134.948C669.062 135.276 662.221 135.348 655.329 135.125L655.297 136.125ZM696.43 134.197L696.55 135.189C703.421 134.359 710.232 133.301 716.98 132.057L716.799 131.074L716.617 130.09C709.907 131.327 703.137 132.379 696.31 133.204L696.43 134.197ZM736.958 126.797L737.19 127.77C743.924 126.164 750.591 124.41 757.187 122.55L756.916 121.587L756.645 120.625C750.071 122.479 743.431 124.226 736.726 125.824L736.958 126.797ZM776.677 115.673L776.977 116.627C783.597 114.545 790.14 112.397 796.603 110.232L796.285 109.283L795.967 108.335C789.512 110.498 782.981 112.642 776.377 114.719L776.677 115.673ZM815.797 102.656L816.12 103.602C822.716 101.347 829.218 99.1254 835.629 96.9903L835.312 96.0416L834.997 95.0928C828.578 97.2308 822.068 99.4546 815.473 101.709L815.797 102.656ZM854.982 89.7283L855.274 90.6847C861.986 88.6348 868.582 86.752 875.059 85.1035L874.813 84.1344L874.566 83.1653C868.051 84.8234 861.424 86.7153 854.69 88.7719L854.982 89.7283ZM894.949 79.7687L895.121 80.7539C902.065 79.5482 908.852 78.7234 915.477 78.3717L915.424 77.3731L915.371 76.3745C908.654 76.7311 901.787 77.5666 894.778 78.7834L894.949 79.7687ZM935.99 77.9499L935.872 78.9429C942.678 79.7528 949.288 81.2324 955.698 83.4988L956.031 82.556L956.365 81.6132C949.804 79.2934 943.048 77.7828 936.109 76.9569L935.99 77.9499ZM974.411 91.6384L973.866 92.4768C979.301 96.0106 984.577 100.285 989.688 105.391L990.395 104.684L991.102 103.976C985.898 98.7773 980.514 94.4139 974.956 90.8001L974.411 91.6384ZM1003.61 120.286L1002.8 120.873C1003.09 121.278 1003.39 121.687 1003.68 122.098L1004.5 121.519L1005.31 120.94C1005.01 120.523 1004.72 120.109 1004.42 119.699L1003.61 120.286Z" fill="#003366"></path></svg> 