<?xml version="1.0" encoding="UTF-8"?> <svg xmlns="http://www.w3.org/2000/svg" width="32" height="50" viewBox="0 0 32 50" fill="none"><path d="M0.772323 35.4807L15.2387 49.6427C15.588 50.0631 16.212 50.1208 16.6325 49.7716C16.6793 49.7327 16.7226 49.6896 16.7615 49.6427L31.2278 35.4807C31.6904 35.052 31.7178 34.3293 31.289 33.8667C31.0764 33.6373 30.7791 33.5052 30.4664 33.5011L23.6139 33.5011L23.6139 15.1516C23.4839 14.3848 22.8637 13.7956 22.0911 13.7049L9.90887 13.7049C9.2997 13.7049 9.14755 14.4662 9.14755 15.1516L9.14755 33.5011L1.53364 33.5011C0.902901 33.5094 0.398367 34.0273 0.406674 34.6581C0.410754 34.9708 0.542936 35.2681 0.772323 35.4807Z" fill="black"></path><path d="M9.90901 11.4208L22.0913 11.4208C22.722 11.4208 23.2334 10.9094 23.2334 10.2787C23.2334 9.64794 22.722 9.13655 22.0913 9.13655L9.90901 9.13656C9.27827 9.13656 8.76689 9.64794 8.76689 10.2787C8.76689 10.9094 9.27813 11.4208 9.90901 11.4208Z" fill="black"></path><path d="M9.90901 6.85246L22.0913 6.85246C22.722 6.85246 23.2334 6.34107 23.2334 5.71033C23.2334 5.07959 22.722 4.56821 22.0913 4.56821L9.90901 4.56821C9.27827 4.56821 8.76689 5.07959 8.76689 5.71033C8.76689 6.34107 9.27813 6.85246 9.90901 6.85246Z" fill="black"></path><path d="M9.90901 2.28424L22.0913 2.28424C22.722 2.28424 23.2334 1.77286 23.2334 1.14212C23.2334 0.511376 22.722 -3.47307e-06 22.0913 -3.41793e-06L9.90901 -2.35293e-06C9.27827 -2.29778e-06 8.76689 0.511377 8.76689 1.14212C8.76689 1.77286 9.27813 2.28424 9.90901 2.28424Z" fill="black"></path></svg> 