<?xml version="1.0" encoding="UTF-8"?> <svg xmlns="http://www.w3.org/2000/svg" width="80" height="80" viewBox="0 0 80 80" fill="none"><circle cx="40" cy="40" r="40" fill="#004B85"></circle><path d="M51.9927 57.01L47.0698 54.0935" stroke="white" stroke-width="1.1" stroke-miterlimit="10" stroke-linecap="round" stroke-linejoin="round"></path><path d="M48.9293 59.2204L45.3021 57.0714" stroke="white" stroke-width="1.1" stroke-miterlimit="10" stroke-linecap="round" stroke-linejoin="round"></path><path d="M45.2169 61.0461L43.7955 60.2041" stroke="white" stroke-width="1.1" stroke-miterlimit="10" stroke-linecap="round" stroke-linejoin="round"></path><path d="M23.764 29.1916H47.7116" stroke="white" stroke-width="1.1" stroke-miterlimit="10" stroke-linecap="round" stroke-linejoin="round"></path><path d="M23.764 24.0888H35.7378" stroke="white" stroke-width="1.1" stroke-miterlimit="10" stroke-linecap="round" stroke-linejoin="round"></path><path d="M23.764 33.713H47.7116" stroke="white" stroke-width="1.1" stroke-miterlimit="10" stroke-linecap="round" stroke-linejoin="round"></path><path d="M44.5808 15.9383V21.0718C44.5808 22.7381 45.9316 24.0888 47.5978 24.0888H52.7313" stroke="white" stroke-width="1.1" stroke-miterlimit="10" stroke-linecap="round" stroke-linejoin="round"></path><path d="M52.9372 37.5628V25.0355C52.9372 24.4294 52.6963 23.848 52.2678 23.4194L45.2502 16.4018C44.8215 15.9732 44.2402 15.7324 43.634 15.7324H21.5553C19.8892 15.7324 18.5384 17.0831 18.5384 18.7494V57.6111C18.5384 59.2773 19.8892 60.628 21.5553 60.628H29.2192" stroke="white" stroke-width="1.1" stroke-miterlimit="10" stroke-linecap="round" stroke-linejoin="round"></path><path d="M33.3333 41.4546L31.8173 40.5564C31.4002 40.3092 30.8618 40.4471 30.6147 40.8641L24.3816 51.3853C24.1345 51.8025 24.2723 52.3409 24.6894 52.588L26.2055 53.4861C27.2224 54.0885 28.5351 53.7526 29.1376 52.7357L34.0838 44.3867C34.6863 43.3697 34.3503 42.057 33.3333 41.4546Z" stroke="white" stroke-width="1.1" stroke-miterlimit="10" stroke-linecap="round" stroke-linejoin="round"></path><path d="M54.2646 48.8226L56.5827 52.7356C57.1853 53.7525 58.4981 54.0886 59.515 53.4861L61.0311 52.588C61.4482 52.3408 61.586 51.8025 61.3388 51.3853L55.1057 40.8642C54.8586 40.4471 54.3201 40.3093 53.9031 40.5563L52.387 41.4546C51.3701 42.057 51.0341 43.3697 51.6366 44.3867L52.5111 45.8627" stroke="white" stroke-width="1.1" stroke-miterlimit="10" stroke-linecap="round" stroke-linejoin="round"></path><path d="M42.7842 44.925L42.5341 44.7769C41.0961 43.9516 40.4235 43.7991 39.126 44.3006L37.712 44.8473C36.8514 45.1799 35.8858 45.0997 35.0921 44.6295L34.2176 44.1138" stroke="white" stroke-width="1.1" stroke-miterlimit="10" stroke-linecap="round" stroke-linejoin="round"></path><path d="M28.8001 53.1646L30.2655 54.0295" stroke="white" stroke-width="1.1" stroke-miterlimit="10" stroke-linecap="round" stroke-linejoin="round"></path><path d="M41.1058 62.6357L43.4518 64.0255C44.2745 64.513 45.3366 64.241 45.824 63.4184C46.3115 62.5956 46.0396 61.5335 45.2169 61.0461L47.1642 62.1997C47.987 62.6871 49.0491 62.4154 49.5365 61.5926C50.0239 60.7699 49.7521 59.7078 48.9293 59.2203L50.2276 59.9895C51.0503 60.4769 52.1124 60.205 52.5998 59.3823C53.0872 58.5596 52.8154 57.4975 51.9926 57.0101L53.5815 57.9513C54.4041 58.4386 55.4661 58.1668 55.9534 57.3442C56.4408 56.5215 56.1691 55.4596 55.3464 54.9721" stroke="white" stroke-width="1.1" stroke-miterlimit="10" stroke-linecap="round" stroke-linejoin="round"></path><path d="M51.7102 44.5109L51.5063 44.6295C50.7125 45.0997 49.7469 45.18 48.8863 44.8473L47.2916 44.2208C46.7928 44.0249 46.2452 43.9902 45.7257 44.1217L43.2822 44.7401C42.1448 45.0279 41.3481 46.0514 41.3481 47.2248V50.4864C41.3481 50.9476 41.7218 51.3227 42.1829 51.323C43.5736 51.3239 44.7013 50.1968 44.7013 48.8063V48.6682L55.16 54.8617C55.3537 54.6553 55.5759 54.4769 55.8202 54.3321L57.3021 53.4664" stroke="white" stroke-width="1.1" stroke-miterlimit="10" stroke-linecap="round" stroke-linejoin="round"></path><path d="M31.9216 57.6195C31.3641 58.3961 30.2825 58.5737 29.506 58.0162C28.7294 57.4587 28.5518 56.377 29.1093 55.6005L30.0898 54.2347C30.6474 53.4582 31.7288 53.2804 32.5055 53.838C33.2822 54.3956 33.4597 55.4771 32.9022 56.2537" stroke="white" stroke-width="1.1" stroke-miterlimit="10" stroke-linecap="round" stroke-linejoin="round"></path><path d="M36.7966 56.7654L34.7339 59.6385C34.1764 60.4151 33.0948 60.5927 32.3183 60.0351C31.5416 59.4776 31.3641 58.3961 31.9216 57.6195L33.9842 54.7464C34.5418 53.9698 35.6233 53.7923 36.3999 54.3498C37.1766 54.9073 37.3541 55.9888 36.7966 56.7654Z" stroke="white" stroke-width="1.1" stroke-miterlimit="10" stroke-linecap="round" stroke-linejoin="round"></path><path d="M36.7966 56.7654C37.3541 55.9887 38.4356 55.8112 39.2121 56.3687C39.9888 56.9261 40.1664 58.0078 39.6089 58.7843L37.5462 61.6575C36.9887 62.4341 35.9072 62.6116 35.1305 62.0541C34.3539 61.4966 34.1764 60.4151 34.7339 59.6384" stroke="white" stroke-width="1.1" stroke-miterlimit="10" stroke-linecap="round" stroke-linejoin="round"></path><path d="M38.6923 60.061C39.2499 59.2845 40.3314 59.1068 41.108 59.6643C41.8845 60.2219 42.0623 61.3034 41.5046 62.08L40.8187 63.0354C40.2612 63.812 39.1797 63.9896 38.4031 63.4321C37.6265 62.8746 37.449 61.793 38.0065 61.0164" stroke="white" stroke-width="1.1" stroke-miterlimit="10" stroke-linecap="round" stroke-linejoin="round"></path></svg> 