<?xml version="1.0" encoding="UTF-8"?> <svg xmlns="http://www.w3.org/2000/svg" width="80" height="80" viewBox="0 0 80 80" fill="none"><circle cx="40" cy="40" r="40" fill="#004B85"></circle><path d="M49.7344 19.125H49.9427C50.0808 19.125 50.2133 19.0701 50.311 18.9725C50.4087 18.8748 50.4635 18.7423 50.4635 18.6042C50.4635 18.466 50.4087 18.3336 50.311 18.2359C50.2133 18.1382 50.0808 18.0833 49.9427 18.0833H49.7344C49.5962 18.0833 49.4638 18.1382 49.3661 18.2359C49.2684 18.3336 49.2135 18.466 49.2135 18.6042C49.2135 18.7423 49.2684 18.8748 49.3661 18.9725C49.4638 19.0701 49.5962 19.125 49.7344 19.125Z" fill="white"></path><path d="M52.0052 19.125H52.2135C52.3516 19.125 52.4841 19.0701 52.5818 18.9725C52.6795 18.8748 52.7343 18.7423 52.7343 18.6042C52.7343 18.466 52.6795 18.3336 52.5818 18.2359C52.4841 18.1382 52.3516 18.0833 52.2135 18.0833H52.0052C51.867 18.0833 51.7346 18.1382 51.6369 18.2359C51.5392 18.3336 51.4843 18.466 51.4843 18.6042C51.4843 18.7423 51.5392 18.8748 51.6369 18.9725C51.7346 19.0701 51.867 19.125 52.0052 19.125Z" fill="white"></path><path d="M54.276 19.125H54.4844C54.6225 19.125 54.755 19.0701 54.8526 18.9725C54.9503 18.8748 55.0052 18.7423 55.0052 18.6042C55.0052 18.466 54.9503 18.3336 54.8526 18.2359C54.755 18.1382 54.6225 18.0833 54.4844 18.0833H54.276C54.1379 18.0833 54.0054 18.1382 53.9077 18.2359C53.8101 18.3336 53.7552 18.466 53.7552 18.6042C53.7552 18.7423 53.8101 18.8748 53.9077 18.9725C54.0054 19.0701 54.1379 19.125 54.276 19.125Z" fill="white"></path><path d="M18.8646 34.5781H24.401C24.5392 34.5781 24.6717 34.5233 24.7693 34.4256C24.867 34.3279 24.9219 34.1954 24.9219 34.0573C24.9219 33.9192 24.867 33.7867 24.7693 33.689C24.6717 33.5913 24.5392 33.5365 24.401 33.5365H18.8646C18.7264 33.5365 18.594 33.5913 18.4963 33.689C18.3986 33.7867 18.3437 33.9192 18.3437 34.0573C18.3437 34.1954 18.3986 34.3279 18.4963 34.4256C18.594 34.5233 18.7264 34.5781 18.8646 34.5781Z" fill="white"></path><path d="M18.8646 37.6614H25.8958C26.034 37.6614 26.1664 37.6066 26.2641 37.5089C26.3618 37.4112 26.4167 37.2787 26.4167 37.1406C26.4167 37.0025 26.3618 36.87 26.2641 36.7723C26.1664 36.6747 26.034 36.6198 25.8958 36.6198H18.8646C18.7264 36.6198 18.594 36.6747 18.4963 36.7723C18.3986 36.87 18.3437 37.0025 18.3437 37.1406C18.3437 37.2787 18.3986 37.4112 18.4963 37.5089C18.594 37.6066 18.7264 37.6614 18.8646 37.6614Z" fill="white"></path><path d="M27.9792 46.9063C28.1173 46.9063 28.2498 46.8514 28.3475 46.7537C28.4451 46.656 28.5 46.5236 28.5 46.3854C28.5 46.2473 28.4451 46.1148 28.3475 46.0171C28.2498 45.9195 28.1173 45.8646 27.9792 45.8646H18.8646C18.7264 45.8646 18.594 45.9195 18.4963 46.0171C18.3986 46.1148 18.3437 46.2473 18.3437 46.3854C18.3437 46.5236 18.3986 46.656 18.4963 46.7537C18.594 46.8514 18.7264 46.9063 18.8646 46.9063H27.9792Z" fill="white"></path><path d="M26.0468 31.3958C26.1444 31.4928 26.2764 31.5473 26.414 31.5473C26.5516 31.5473 26.6836 31.4928 26.7812 31.3958L28.3437 29.8333C28.4407 29.7358 28.4952 29.6037 28.4952 29.4662C28.4952 29.3286 28.4407 29.1965 28.3437 29.099L26.7812 27.5365C26.6816 27.4511 26.5534 27.4065 26.4223 27.4116C26.2912 27.4167 26.1669 27.471 26.0741 27.5638C25.9814 27.6565 25.927 27.7809 25.922 27.912C25.9169 28.043 25.9615 28.1712 26.0468 28.2708L27.2447 29.4688L26.0468 30.6667C25.9514 30.764 25.8979 30.8949 25.8979 31.0313C25.8979 31.1676 25.9514 31.2985 26.0468 31.3958Z" fill="white"></path><path d="M20.4323 31.5469C20.5357 31.5475 20.637 31.5173 20.7232 31.4601C20.8094 31.4029 20.8767 31.3213 20.9163 31.2258C20.956 31.1302 20.9663 31.025 20.946 30.9236C20.9256 30.8222 20.8755 30.7291 20.8021 30.6562L19.6041 29.4583L20.8021 28.2604C20.8991 28.1628 20.9535 28.0308 20.9535 27.8932C20.9535 27.7556 20.8991 27.6236 20.8021 27.526C20.7536 27.4772 20.696 27.4385 20.6326 27.412C20.5691 27.3856 20.501 27.372 20.4323 27.372C20.3635 27.372 20.2954 27.3856 20.232 27.412C20.1685 27.4385 20.1109 27.4772 20.0625 27.526L18.5 29.0885C18.403 29.1861 18.3485 29.3181 18.3485 29.4557C18.3485 29.5933 18.403 29.7253 18.5 29.8229C20.1666 31.5052 20.1666 31.5469 20.4323 31.5469Z" fill="white"></path><path d="M22.5104 30.9271C22.647 30.9265 22.7779 30.8723 22.875 30.776L24.7708 28.8802C24.8561 28.7806 24.9007 28.6524 24.8956 28.5213C24.8906 28.3902 24.8362 28.2659 24.7435 28.1731C24.6507 28.0804 24.5264 28.0261 24.3953 28.021C24.2642 28.0159 24.1361 28.0605 24.0364 28.1458L22.1406 30.0417C22.0689 30.1148 22.0204 30.2074 22.0011 30.308C21.9817 30.4085 21.9925 30.5125 22.0319 30.607C22.0714 30.7015 22.1378 30.7822 22.2229 30.8391C22.308 30.8961 22.408 30.9267 22.5104 30.9271Z" fill="white"></path><path d="M26.2395 34.5781H26.9947C27.1329 34.5781 27.2653 34.5233 27.363 34.4256C27.4607 34.3279 27.5156 34.1954 27.5156 34.0573C27.5156 33.9192 27.4607 33.7867 27.363 33.689C27.2653 33.5913 27.1329 33.5365 26.9947 33.5365H26.2395C26.1014 33.5365 25.9689 33.5913 25.8712 33.689C25.7736 33.7867 25.7187 33.9192 25.7187 34.0573C25.7187 34.1954 25.7736 34.3279 25.8712 34.4256C25.9689 34.5233 26.1014 34.5781 26.2395 34.5781Z" fill="white"></path><path d="M18.8646 40.5208H22.7969C22.935 40.5208 23.0675 40.466 23.1652 40.3683C23.2628 40.2706 23.3177 40.1381 23.3177 40C23.3177 39.8619 23.2628 39.7294 23.1652 39.6317C23.0675 39.534 22.935 39.4792 22.7969 39.4792H18.8646C18.7264 39.4792 18.594 39.534 18.4963 39.6317C18.3986 39.7294 18.3437 39.8619 18.3437 40C18.3437 40.1381 18.3986 40.2706 18.4963 40.3683C18.594 40.466 18.7264 40.5208 18.8646 40.5208Z" fill="white"></path><path d="M18.8646 43.6458H26.4167C26.5548 43.6458 26.6873 43.591 26.785 43.4933C26.8826 43.3956 26.9375 43.2631 26.9375 43.125C26.9375 42.9869 26.8826 42.8544 26.785 42.7567C26.6873 42.659 26.5548 42.6042 26.4167 42.6042H18.8646C18.7264 42.6042 18.594 42.659 18.4963 42.7567C18.3986 42.8544 18.3437 42.9869 18.3437 43.125C18.3437 43.2631 18.3986 43.3956 18.4963 43.4933C18.594 43.591 18.7264 43.6458 18.8646 43.6458Z" fill="white"></path><path d="M61.8854 25.1927H58.0573V17.9531C58.0573 17.1699 57.7462 16.4188 57.1923 15.865C56.6385 15.3111 55.8874 15 55.1042 15H22.349C21.5657 15 20.8146 15.3111 20.2608 15.865C19.707 16.4188 19.3958 17.1699 19.3958 17.9531V25.1927H18.0313C17.493 25.1941 16.9771 25.4085 16.5965 25.7892C16.2158 26.1698 16.0014 26.6857 16 27.224V47.9688C16.0014 48.507 16.2158 49.0229 16.5965 49.4035C16.9771 49.7842 17.493 49.9986 18.0313 50H19.3958V52.3646H18.0313C17.4934 52.3646 16.9776 52.5779 16.5968 52.9577C16.216 53.3375 16.0014 53.8528 16 54.3906V60.0469C16.0014 60.5852 16.2158 61.101 16.5965 61.4817C16.9771 61.8623 17.493 62.0767 18.0313 62.0781H19.3958C19.4041 62.8559 19.7188 63.599 20.2718 64.1461C20.8247 64.6932 21.5711 65 22.349 65H55.1042C55.8865 65 56.6368 64.6896 57.1905 64.1369C57.7442 63.5842 58.0559 62.8344 58.0573 62.0521V42.5573H61.8854C62.4246 42.5559 62.9413 42.3407 63.322 41.959C63.7028 41.5772 63.9167 41.06 63.9167 40.5208V27.224C63.9153 26.6857 63.7008 26.1698 63.3202 25.7892C62.9396 25.4085 62.4237 25.1941 61.8854 25.1927ZM57.0156 17.9531V21.1615H29.5417V16.0417H55.1146C55.6197 16.0444 56.1032 16.247 56.4595 16.6052C56.8157 16.9634 57.0156 17.448 57.0156 17.9531ZM20.4375 17.9531C20.4375 17.7021 20.4869 17.4536 20.583 17.2216C20.6791 16.9897 20.8199 16.779 20.9974 16.6015C21.1748 16.424 21.3856 16.2832 21.6175 16.1872C21.8494 16.0911 22.0979 16.0417 22.349 16.0417H28.5V21.1615H20.4375V17.9531ZM18.0313 48.9583C17.7688 48.9583 17.5171 48.8541 17.3315 48.6685C17.1459 48.4829 17.0417 48.2312 17.0417 47.9688V27.224C17.0417 26.9615 17.1459 26.7098 17.3315 26.5242C17.5171 26.3386 17.7688 26.2344 18.0313 26.2344H28.8125C29.075 26.2344 29.3267 26.3386 29.5122 26.5242C29.6978 26.7098 29.8021 26.9615 29.8021 27.224V47.9688C29.8021 48.2303 29.6985 48.4812 29.5141 48.6667C29.3296 48.8521 29.0793 48.957 28.8177 48.9583H18.0313ZM18.0313 61.0365C17.7688 61.0365 17.5171 60.9322 17.3315 60.7466C17.1459 60.561 17.0417 60.3093 17.0417 60.0469V54.3906C17.043 54.1291 17.1479 53.8787 17.3333 53.6942C17.5188 53.5098 17.7697 53.4062 18.0313 53.4062H28.8125C29.0741 53.4062 29.325 53.5098 29.5104 53.6942C29.6958 53.8787 29.8007 54.1291 29.8021 54.3906V60.0469C29.8021 60.3084 29.6985 60.5593 29.5141 60.7448C29.3296 60.9302 29.0793 61.0351 28.8177 61.0365H18.0313ZM57.0156 62.0365C57.0177 62.2885 56.9697 62.5385 56.8745 62.772C56.7793 63.0054 56.6388 63.2176 56.461 63.3963C56.2833 63.5751 56.0718 63.7168 55.8389 63.8133C55.606 63.9097 55.3563 63.959 55.1042 63.9583H22.349C21.85 63.9585 21.3708 63.7635 21.0137 63.4151C20.6565 63.0668 20.4497 62.5925 20.4375 62.0937H28.8177C29.3555 62.0924 29.8708 61.8778 30.2507 61.497C30.6305 61.1162 30.8438 60.6003 30.8438 60.0625V54.3906C30.8424 53.8528 30.6278 53.3375 30.247 52.9577C29.8662 52.5779 29.3503 52.3646 28.8125 52.3646H20.4375V50H28.8177C29.3555 49.9986 29.8708 49.784 30.2507 49.4032C30.6305 49.0224 30.8438 48.5066 30.8438 47.9688V27.224C30.8424 26.6857 30.6279 26.1698 30.2473 25.7892C29.8667 25.4085 29.3508 25.1941 28.8125 25.1927H20.4375V22.2031H57.0156V25.1927H35.2188C34.6805 25.1941 34.1646 25.4085 33.784 25.7892C33.4033 26.1698 33.1889 26.6857 33.1875 27.224V40.5208C33.1875 41.06 33.4013 41.5772 33.7821 41.959C34.1629 42.3407 34.6796 42.5559 35.2188 42.5573H57.0156V62.0365ZM53.0781 41.5156H37.2604L45.1667 33.6042L53.0781 41.5156ZM54.5521 41.5156L50.7813 37.7448L53.1302 35.3958L59.2292 41.5156H54.5521ZM62.875 40.5208C62.875 40.7838 62.7709 41.036 62.5855 41.2224C62.4 41.4088 62.1483 41.5142 61.8854 41.5156H60.724L53.5 34.2708C53.4024 34.1738 53.2704 34.1194 53.1328 34.1194C52.9952 34.1194 52.8632 34.1738 52.7656 34.2708L50.0521 36.9896L45.5365 32.5C45.4389 32.403 45.3069 32.3485 45.1693 32.3485C45.0317 32.3485 44.8997 32.403 44.8021 32.5L35.7917 41.5156H35.2188C34.9558 41.5142 34.7041 41.4088 34.5187 41.2224C34.3333 41.036 34.2292 40.7838 34.2292 40.5208V27.224C34.2292 26.9615 34.3334 26.7098 34.519 26.5242C34.7046 26.3386 34.9563 26.2344 35.2188 26.2344H61.8854C62.1479 26.2344 62.3996 26.3386 62.5852 26.5242C62.7707 26.7098 62.875 26.9615 62.875 27.224V40.5208Z" fill="white"></path><path d="M50.0052 28.0208C49.52 28.0208 49.0457 28.1647 48.6423 28.4343C48.2389 28.7038 47.9245 29.0869 47.7388 29.5352C47.5531 29.9834 47.5045 30.4767 47.5992 30.9525C47.6939 31.4284 47.9275 31.8655 48.2706 32.2086C48.6136 32.5517 49.0507 32.7853 49.5266 32.88C50.0025 32.9746 50.4957 32.926 50.944 32.7404C51.3922 32.5547 51.7753 32.2403 52.0449 31.8369C52.3144 31.4334 52.4583 30.9592 52.4583 30.474C52.4583 29.8234 52.1999 29.1994 51.7398 28.7393C51.2798 28.2793 50.6558 28.0208 50.0052 28.0208ZM50.0052 31.8854C49.726 31.8854 49.4531 31.8026 49.221 31.6476C48.9889 31.4925 48.808 31.272 48.7012 31.0141C48.5943 30.7562 48.5664 30.4724 48.6209 30.1986C48.6753 29.9248 48.8097 29.6733 49.0071 29.4759C49.2045 29.2785 49.456 29.1441 49.7298 29.0896C50.0036 29.0352 50.2874 29.0631 50.5453 29.17C50.8032 29.2768 51.0237 29.4577 51.1788 29.6898C51.3339 29.9219 51.4166 30.1948 51.4166 30.474C51.4166 30.8483 51.2679 31.2073 51.0032 31.472C50.7385 31.7367 50.3795 31.8854 50.0052 31.8854Z" fill="white"></path><path d="M35.3333 54.3385H44.7969C45.3351 54.3372 45.851 54.1227 46.2316 53.7421C46.6123 53.3614 46.8267 52.8456 46.8281 52.3073V46.651C46.8267 46.1127 46.6123 45.5969 46.2316 45.2162C45.851 44.8356 45.3351 44.6212 44.7969 44.6198H35.3333C34.7955 44.6212 34.2802 44.8358 33.9004 45.2166C33.5206 45.5973 33.3073 46.1132 33.3073 46.651V52.3073C33.3073 52.8451 33.5206 53.361 33.9004 53.7418C34.2802 54.1225 34.7955 54.3372 35.3333 54.3385ZM34.3489 46.651C34.3489 46.3895 34.4525 46.1386 34.6369 45.9531C34.8214 45.7677 35.0718 45.6628 35.3333 45.6614H44.7969C45.0589 45.6628 45.3098 45.7675 45.4951 45.9528C45.6804 46.1381 45.7851 46.389 45.7864 46.651V52.3073C45.7851 52.5693 45.6804 52.8202 45.4951 53.0055C45.3098 53.1908 45.0589 53.2955 44.7969 53.2969H35.3333C35.0718 53.2955 34.8214 53.1906 34.6369 53.0052C34.4525 52.8198 34.3489 52.5688 34.3489 52.3073V46.651Z" fill="white"></path><path d="M42.8437 50.6562C42.8437 50.7764 42.796 50.8917 42.711 50.9767C42.626 51.0616 42.5108 51.1094 42.3906 51.1094C42.2525 51.1094 42.12 51.1642 42.0223 51.2619C41.9246 51.3596 41.8698 51.4921 41.8698 51.6302C41.8698 52.6094 43.8854 52.151 43.8854 50.6562V50H44.125C44.2631 50 44.3956 49.9451 44.4933 49.8474C44.5909 49.7498 44.6458 49.6173 44.6458 49.4792C44.6458 49.341 44.5909 49.2086 44.4933 49.1109C44.3956 49.0132 44.2631 48.9583 44.125 48.9583H43.8802V48.3021C43.8802 46.8125 41.8646 46.3385 41.8646 47.3281C41.8646 47.4663 41.9194 47.5987 42.0171 47.6964C42.1148 47.7941 42.2473 47.849 42.3854 47.849C42.5056 47.849 42.6208 47.8967 42.7058 47.9817C42.7908 48.0667 42.8385 48.1819 42.8385 48.3021L42.8437 50.6562Z" fill="white"></path><path d="M36 50H36.2448V50.6563C36.2448 52.1458 38.2604 52.6146 38.2604 51.6302C38.2604 51.4921 38.2055 51.3596 38.1078 51.2619C38.0102 51.1643 37.8777 51.1094 37.7396 51.1094C37.6801 51.1094 37.6211 51.0977 37.5662 51.0749C37.5112 51.0521 37.4612 51.0187 37.4191 50.9767C37.3771 50.9346 37.3437 50.8846 37.3209 50.8297C37.2982 50.7747 37.2864 50.7158 37.2864 50.6563V48.3021C37.2864 48.1819 37.3342 48.0667 37.4191 47.9817C37.5041 47.8967 37.6194 47.849 37.7396 47.849C37.8777 47.849 38.0102 47.7941 38.1078 47.6964C38.2055 47.5987 38.2604 47.4663 38.2604 47.3281C38.2604 46.349 36.2448 46.8073 36.2448 48.3021V48.9583H36C35.8618 48.9583 35.7294 49.0132 35.6317 49.1109C35.534 49.2086 35.4791 49.341 35.4791 49.4792C35.4791 49.6173 35.534 49.7498 35.6317 49.8475C35.7294 49.9451 35.8618 50 36 50Z" fill="white"></path><path d="M39.0052 51.0573C39.0737 51.0577 39.1417 51.0446 39.2051 51.0186C39.2686 50.9927 39.3263 50.9545 39.375 50.9063L41.5208 48.7865C41.6178 48.6889 41.6723 48.5569 41.6723 48.4193C41.6723 48.2817 41.6178 48.1497 41.5208 48.0521C41.4724 48.0033 41.4148 47.9645 41.3513 47.9381C41.2878 47.9116 41.2198 47.898 41.151 47.898C41.0823 47.898 41.0142 47.9116 40.9507 47.9381C40.8872 47.9645 40.8296 48.0033 40.7812 48.0521L38.6666 50.1667C38.5948 50.2376 38.5452 50.3279 38.5237 50.4265C38.5023 50.5252 38.51 50.6279 38.5458 50.7222C38.5817 50.8166 38.6442 50.8985 38.7257 50.958C38.8073 51.0175 38.9044 51.052 39.0052 51.0573Z" fill="white"></path><path d="M19.276 56.0573H27.5677C27.7058 56.0573 27.8383 56.0024 27.9359 55.9047C28.0336 55.8071 28.0885 55.6746 28.0885 55.5365C28.0885 55.3983 28.0336 55.2658 27.9359 55.1682C27.8383 55.0705 27.7058 55.0156 27.5677 55.0156H19.276C19.1379 55.0156 19.0054 55.0705 18.9077 55.1682C18.81 55.2658 18.7552 55.3983 18.7552 55.5365C18.7552 55.6746 18.81 55.8071 18.9077 55.9047C19.0054 56.0024 19.1379 56.0573 19.276 56.0573Z" fill="white"></path><path d="M24.7708 59.099C24.9089 59.099 25.0414 59.0441 25.1391 58.9464C25.2367 58.8487 25.2916 58.7163 25.2916 58.5781C25.2916 58.44 25.2367 58.3075 25.1391 58.2098C25.0414 58.1122 24.9089 58.0573 24.7708 58.0573H19.276C19.1379 58.0573 19.0054 58.1122 18.9077 58.2098C18.81 58.3075 18.7552 58.44 18.7552 58.5781C18.7552 58.7163 18.81 58.8487 18.9077 58.9464C19.0054 59.0441 19.1379 59.099 19.276 59.099H24.7708Z" fill="white"></path><path d="M51.6198 56.6979H35.3333C35.0652 56.6986 34.7999 56.7523 34.5527 56.856C34.3055 56.9597 34.0813 57.1113 33.8929 57.3021C33.7046 57.4928 33.5559 57.719 33.4554 57.9675C33.3548 58.216 33.3045 58.4819 33.3073 58.75V60.0677C33.3073 60.6055 33.5205 61.1214 33.9004 61.5022C34.2802 61.883 34.7955 62.0976 35.3333 62.099H51.6198C52.1581 62.0976 52.6739 61.8831 53.0545 61.5025C53.4352 61.1219 53.6496 60.606 53.651 60.0677V58.75C53.6531 58.4817 53.6021 58.2156 53.501 57.9671C53.3999 57.7186 53.2507 57.4924 53.0619 57.3017C52.8732 57.1111 52.6486 56.9595 52.4011 56.8559C52.1536 56.7523 51.8881 56.6986 51.6198 56.6979ZM35.3333 61.0365C35.0717 61.0351 34.8214 60.9302 34.6369 60.7448C34.4525 60.5594 34.3489 60.3084 34.3489 60.0469V58.75C34.3489 58.4885 34.4525 58.2375 34.6369 58.0521C34.8214 57.8667 35.0717 57.7618 35.3333 57.7604H38.8281C38.958 57.7604 39.0867 57.786 39.2068 57.8358C39.3268 57.8855 39.4359 57.9584 39.5278 58.0503C39.6197 58.1422 39.6926 58.2512 39.7423 58.3713C39.7921 58.4914 39.8177 58.6201 39.8177 58.75V60.0677C39.8177 60.3302 39.7134 60.5819 39.5278 60.7675C39.3422 60.953 39.0905 61.0573 38.8281 61.0573L35.3333 61.0365ZM52.6093 60.0469C52.6093 60.3093 52.5051 60.561 52.3195 60.7466C52.1339 60.9322 51.8822 61.0365 51.6198 61.0365H40.6041C40.9323 60.4375 40.8593 60.0469 40.8593 58.7292C40.8595 58.383 40.7717 58.0425 40.6041 57.7396H51.6198C51.8818 57.741 52.1327 57.8457 52.318 58.0309C52.5033 58.2162 52.608 58.4671 52.6093 58.7292V60.0469Z" fill="white"></path></svg> 