<svg width="50" height="50" viewBox="0 0 50 50" fill="none" xmlns="http://www.w3.org/2000/svg">
<g clip-path="url(#clip0_2013_269)">
<path d="M25 50C38.8071 50 50 38.8071 50 25C50 11.1929 38.8071 0 25 0C11.1929 0 0 11.1929 0 25C0 38.8071 11.1929 50 25 50Z" fill="#4065D6"/>
<path d="M36.5313 32.1436C35.9457 32.2259 33.1003 32.1436 32.9523 32.1436C32.2167 32.1511 31.5077 31.8687 30.9786 31.3575C30.3767 30.7785 29.8339 30.1404 29.2582 29.5384C29.0835 29.3549 28.8955 29.1845 28.6957 29.0285C28.2253 28.67 27.7615 28.7522 27.5411 29.3048C27.3685 29.9038 27.2496 30.517 27.1859 31.1371C27.1756 31.3983 27.0621 31.6447 26.8703 31.8223C26.6785 32 26.4241 32.0942 26.1628 32.0844C25.7747 32.1042 25.3865 32.114 25.0017 32.1042C23.6016 32.0969 22.2231 31.7588 20.9786 31.1173C19.6351 30.3666 18.4641 29.3423 17.5411 28.1107C16.0644 26.1608 14.7882 24.0669 13.7319 21.8607C13.676 21.7489 12.5674 19.3904 12.5411 19.2818C12.4724 19.1272 12.4658 18.9522 12.5228 18.7929C12.5798 18.6336 12.6959 18.5024 12.8471 18.4265C13.0444 18.3509 16.699 18.4265 16.7582 18.4265C17.0304 18.4239 17.2962 18.5084 17.517 18.6676C17.7377 18.8268 17.9018 19.0524 17.9852 19.3114C18.6611 21.0345 19.5842 22.6502 20.7253 24.1075C20.8845 24.3039 21.0719 24.4757 21.2813 24.6173C21.3352 24.6694 21.4021 24.7062 21.4751 24.7237C21.548 24.7413 21.6243 24.7391 21.6961 24.7173C21.7678 24.6955 21.8325 24.6549 21.8833 24.5997C21.9342 24.5446 21.9693 24.4768 21.9852 24.4035C22.1298 23.9279 22.2149 23.4362 22.2385 22.9397C22.2582 21.9528 22.2385 21.295 22.1826 20.3081C22.2025 19.9718 22.0889 19.6412 21.8666 19.3881C21.6443 19.135 21.3311 18.9798 20.9951 18.9561C20.7056 18.9068 20.6661 18.67 20.8668 18.4331C21.2517 17.943 21.7846 17.864 22.3635 17.8344C23.2385 17.7851 24.1168 17.8344 24.9951 17.8344H25.1859C25.5715 17.8335 25.9562 17.872 26.3339 17.9496C26.5548 17.9948 26.7551 18.1102 26.9051 18.2785C27.055 18.4469 27.1466 18.6592 27.1661 18.8838C27.2105 19.1323 27.2303 19.3846 27.2253 19.6371C27.2023 20.7127 27.1497 21.7884 27.1365 22.8673C27.1287 23.2935 27.1673 23.7193 27.2517 24.1371C27.3799 24.7094 27.7714 24.8542 28.1727 24.4364C28.6728 23.8996 29.1314 23.3256 29.5444 22.7193C30.2871 21.6153 30.8987 20.4286 31.3668 19.1831C31.6201 18.545 31.8142 18.4035 32.5017 18.4035H36.3799C36.6114 18.3997 36.842 18.4307 37.0642 18.4956C37.1426 18.5165 37.2158 18.5533 37.2794 18.6037C37.343 18.6541 37.3956 18.7171 37.4338 18.7886C37.4721 18.8602 37.4952 18.9389 37.5018 19.0197C37.5084 19.1006 37.4982 19.182 37.4721 19.2588C37.2453 20.084 36.8561 20.8556 36.3273 21.5285C35.5378 22.6436 34.7089 23.7325 33.8997 24.818C33.7973 24.96 33.7039 25.1083 33.6201 25.2621C33.3174 25.8081 33.3405 26.1173 33.778 26.5779C34.4819 27.3015 35.2352 27.9825 35.9128 28.7259C36.4126 29.2676 36.8639 29.8521 37.2615 30.4726C37.7615 31.2752 37.4556 32.0121 36.5313 32.1436Z" fill="white"/>
</g>
<defs>
<clipPath id="clip0_2013_269">
<rect width="50" height="50" fill="white"/>
</clipPath>
</defs>
</svg>
