<?xml version="1.0" encoding="UTF-8"?> <svg xmlns="http://www.w3.org/2000/svg" width="80" height="80" viewBox="0 0 80 80" fill="none"><circle cx="40" cy="40" r="40" fill="#004B85"></circle><path d="M63.1012 30.4279C60.8116 24.9093 56.7186 20.5558 51.6744 17.8953C51.6267 17.8709 51.5791 17.8465 51.5314 17.8221C50.8919 17.4895 50.2384 17.1826 49.5698 16.907C49.5046 16.8802 49.4419 16.85 49.3767 16.8244C48.6674 16.5384 47.9453 16.2791 47.2081 16.0593C47.1477 16.0407 47.086 16.0279 47.0256 16.0105C46.3953 15.8244 45.7558 15.6686 45.1081 15.5349C44.8942 15.4895 44.6779 15.4523 44.4628 15.414C43.936 15.3186 43.4046 15.2419 42.8686 15.1814C42.6512 15.157 42.4349 15.1267 42.2163 15.1081C41.4837 15.043 40.7465 15 40 15C39.2546 15 38.5174 15.043 37.7849 15.107C37.5663 15.1267 37.3488 15.1558 37.1314 15.1802C36.5965 15.2419 36.0674 15.3174 35.5419 15.4116C35.3244 15.4512 35.107 15.4884 34.8907 15.5337C34.2453 15.6674 33.607 15.8233 32.9791 16.0058C32.9163 16.0244 32.8535 16.036 32.7907 16.0558C32.0558 16.2756 31.3372 16.5337 30.6302 16.8186C30.557 16.8465 30.4872 16.8814 30.4151 16.9105C29.7546 17.186 29.1093 17.4884 28.4767 17.8163C28.4244 17.843 28.3709 17.8709 28.3186 17.8977C23.2837 20.5547 19.1965 24.9012 16.907 30.407C16.7837 30.7047 16.9244 31.0442 17.2209 31.1674C17.5163 31.2884 17.8581 31.15 17.9814 30.8535C19.1953 27.9337 20.9442 25.3605 23.0767 23.2081C24.6267 23.6965 26.3291 24.1093 28.15 24.4442C27.2767 26.2721 26.543 28.3174 25.993 30.5581C25.9163 30.8709 26.107 31.1849 26.4186 31.2605C26.4651 31.2733 26.5116 31.2791 26.557 31.2791C26.8186 31.2791 27.0558 31.1023 27.1209 30.836C27.6826 28.5488 28.4349 26.4733 29.3349 24.6465C32.4605 25.15 35.8779 25.4279 39.4174 25.4558V30.6977C39.4174 31.0186 39.6779 31.2791 39.9988 31.2791C40.3198 31.2791 40.5802 31.0186 40.5802 30.6977V25.4558C44.1198 25.4279 47.5384 25.1488 50.6628 24.6465C51.5546 26.457 52.3012 28.5105 52.8605 30.7721C52.9372 31.0837 53.2523 31.2721 53.5639 31.1965C53.8756 31.1198 54.0663 30.8047 53.9884 30.493C53.4407 28.2791 52.7116 26.2558 51.8465 24.4465C53.6674 24.1116 55.3721 23.6977 56.9209 23.2105C59.0581 25.3674 60.8105 27.9465 62.0244 30.8744C62.1174 31.0977 62.3337 31.2337 62.5616 31.2337C62.636 31.2337 62.7116 31.2198 62.7837 31.1895C63.0837 31.064 63.2244 30.7233 63.1012 30.4279ZM24.0512 22.2977C26.75 19.8605 29.9174 18.1081 33.3349 17.1151C33.5093 17.064 33.6884 17.0209 33.8651 16.9744C33.9802 16.9442 34.0965 16.9221 34.2116 16.8942C32.1023 18.3279 30.2209 20.5384 28.7035 23.3628C27.05 23.0686 25.4826 22.7186 24.0512 22.2977ZM29.9012 23.5628C32.3581 19.15 35.7465 16.4605 39.4186 16.2V24.293C36.0837 24.2674 32.8593 24.0174 29.9012 23.5628ZM40.5814 24.293V16.2C44.2512 16.4605 47.6395 19.1523 50.0965 23.5628C47.1395 24.0174 43.9151 24.2674 40.5814 24.293ZM55.9477 22.2977C54.5174 22.7174 52.9488 23.0698 51.2953 23.3616C49.7767 20.536 47.8942 18.3267 45.7837 16.893C45.9023 16.9221 46.0233 16.9442 46.1407 16.9756C46.3151 17.0221 46.4907 17.064 46.6639 17.114C50.0802 18.1093 53.2488 19.8616 55.9477 22.2977Z" fill="white"></path><path d="M63.8372 48.7209H51.6279C51.307 48.7209 51.0465 48.4605 51.0465 48.1395C51.0465 47.8186 51.307 47.5581 51.6279 47.5581H63.8372V33.6047H16.1628V47.5581H40C40.3209 47.5581 40.5814 47.8186 40.5814 48.1395C40.5814 48.4605 40.3209 48.7209 40 48.7209H16.1628C15.5221 48.7209 15 48.2 15 47.5581V33.6047C15 32.9628 15.5221 32.4419 16.1628 32.4419H63.8372C64.4779 32.4419 65 32.9628 65 33.6047V47.5581C65 48.2 64.4779 48.7209 63.8372 48.7209Z" fill="white"></path><path d="M50.4651 44.0698C50.393 44.0698 50.3198 44.0558 50.2488 44.0279C49.9512 43.9081 49.8058 43.5698 49.9244 43.2733L52.25 37.4593C52.3698 37.1605 52.7093 37.0163 53.0058 37.1361C53.3035 37.2558 53.4488 37.5942 53.3302 37.8907L51.0046 43.7047C50.9139 43.9314 50.6953 44.0698 50.4651 44.0698Z" fill="white"></path><path d="M45.814 44.0698C45.7419 44.0698 45.6686 44.0558 45.5977 44.0279C45.3 43.9081 45.1546 43.5698 45.2733 43.2733L47.5988 37.4593C47.7186 37.1605 48.0581 37.0163 48.3546 37.1361C48.6523 37.2558 48.7977 37.5942 48.6791 37.8907L46.3535 43.7047C46.2628 43.9314 46.0442 44.0698 45.814 44.0698Z" fill="white"></path><path d="M50.4651 44.0698C50.2349 44.0698 50.0163 43.9314 49.9256 43.7047L47.6 37.8907C47.4802 37.593 47.6256 37.2547 47.9244 37.1361C48.2198 37.0163 48.5605 37.1605 48.6802 37.4593L51.0058 43.2733C51.1256 43.5709 50.9802 43.9093 50.6814 44.0279C50.6105 44.0558 50.5372 44.0698 50.4651 44.0698Z" fill="white"></path><path d="M45.814 44.0698C45.5837 44.0698 45.3651 43.9314 45.2744 43.7047L42.9488 37.8907C42.8291 37.593 42.9744 37.2547 43.2733 37.1361C43.5686 37.0163 43.9093 37.1605 44.0291 37.4593L46.3547 43.2733C46.4744 43.5709 46.3291 43.9093 46.0302 44.0279C45.9593 44.0558 45.8861 44.0698 45.814 44.0698Z" fill="white"></path><path d="M38.8372 44.0698C38.7651 44.0698 38.6919 44.0558 38.6209 44.0279C38.3233 43.9081 38.1779 43.5698 38.2965 43.2733L40.6221 37.4593C40.7419 37.1605 41.0814 37.0163 41.3779 37.1361C41.6756 37.2558 41.8209 37.5942 41.7023 37.8907L39.3767 43.7047C39.286 43.9314 39.0674 44.0698 38.8372 44.0698Z" fill="white"></path><path d="M34.186 44.0698C34.1139 44.0698 34.0407 44.0558 33.9698 44.0279C33.6721 43.9081 33.5267 43.5698 33.6453 43.2733L35.9709 37.4593C36.0907 37.1605 36.4302 37.0163 36.7267 37.1361C37.0244 37.2558 37.1698 37.5942 37.0512 37.8907L34.7256 43.7047C34.6349 43.9314 34.4163 44.0698 34.186 44.0698Z" fill="white"></path><path d="M38.8372 44.0698C38.607 44.0698 38.3884 43.9314 38.2977 43.7047L35.9721 37.8907C35.8523 37.593 35.9977 37.2547 36.2965 37.1361C36.5907 37.0163 36.9326 37.1605 37.0523 37.4593L39.3779 43.2733C39.4977 43.5709 39.3523 43.9093 39.0535 44.0279C38.9826 44.0558 38.9093 44.0698 38.8372 44.0698Z" fill="white"></path><path d="M34.186 44.0698C33.9558 44.0698 33.7372 43.9314 33.6465 43.7047L31.3209 37.8907C31.2012 37.593 31.3465 37.2547 31.6453 37.1361C31.9395 37.0163 32.2814 37.1605 32.4012 37.4593L34.7267 43.2733C34.8465 43.5709 34.7012 43.9093 34.4023 44.0279C34.3314 44.0558 34.2581 44.0698 34.186 44.0698Z" fill="white"></path><path d="M27.2093 44.0698C27.1372 44.0698 27.0639 44.0558 26.993 44.0279C26.6953 43.9081 26.55 43.5698 26.6686 43.2733L28.9942 37.4593C29.1139 37.1605 29.4535 37.0163 29.75 37.1361C30.0477 37.2558 30.193 37.5942 30.0744 37.8907L27.7488 43.7047C27.6581 43.9314 27.4395 44.0698 27.2093 44.0698Z" fill="white"></path><path d="M22.5581 44.0698C22.486 44.0698 22.4128 44.0558 22.3418 44.0279C22.0442 43.9081 21.8988 43.5698 22.0174 43.2733L24.343 37.4593C24.4616 37.1605 24.8035 37.0163 25.0988 37.1361C25.3965 37.2558 25.5418 37.5942 25.4232 37.8907L23.0977 43.7047C23.007 43.9314 22.7884 44.0698 22.5581 44.0698Z" fill="white"></path><path d="M27.2093 44.0698C26.9791 44.0698 26.7605 43.9314 26.6698 43.7047L24.3442 37.8907C24.2244 37.593 24.3698 37.2547 24.6686 37.1361C24.9628 37.0163 25.3046 37.1605 25.4244 37.4593L27.75 43.2733C27.8698 43.5709 27.7244 43.9093 27.4256 44.0279C27.3546 44.0558 27.2814 44.0698 27.2093 44.0698Z" fill="white"></path><path d="M22.5581 44.0698C22.3279 44.0698 22.1093 43.9314 22.0186 43.7047L19.693 37.8907C19.5732 37.593 19.7186 37.2547 20.0174 37.1361C20.3116 37.0163 20.6535 37.1605 20.7732 37.4593L23.0988 43.2733C23.2186 43.5709 23.0732 43.9093 22.7744 44.0279C22.7035 44.0558 22.6302 44.0698 22.5581 44.0698Z" fill="white"></path><path d="M53.9535 44.0698C54.2746 44.0698 54.5349 43.8095 54.5349 43.4884C54.5349 43.1673 54.2746 42.907 53.9535 42.907C53.6324 42.907 53.3721 43.1673 53.3721 43.4884C53.3721 43.8095 53.6324 44.0698 53.9535 44.0698Z" fill="white"></path><path d="M53.9535 44.3605C53.4721 44.3605 53.0814 43.9686 53.0814 43.4884C53.0814 43.0081 53.4721 42.6163 53.9535 42.6163C54.4349 42.6163 54.8256 43.0081 54.8256 43.4884C54.8256 43.9686 54.4349 44.3605 53.9535 44.3605ZM53.9535 43.1977C53.793 43.1977 53.6628 43.3279 53.6628 43.4884C53.6628 43.6488 53.793 43.7791 53.9535 43.7791C54.114 43.7791 54.2442 43.6488 54.2442 43.4884C54.2442 43.3279 54.114 43.1977 53.9535 43.1977Z" fill="white"></path><path d="M57.4419 46.3954C57.1209 46.3954 56.8605 46.1349 56.8605 45.814V35.3489C56.8605 35.0279 57.1209 34.7675 57.4419 34.7675C57.7628 34.7675 58.0232 35.0279 58.0232 35.3489V45.814C58.0232 46.1349 57.7628 46.3954 57.4419 46.3954Z" fill="white"></path><path d="M62.2872 50.007C61.9977 49.8697 61.65 49.9907 61.5116 50.2802C60.3395 52.7279 58.7628 54.9104 56.8953 56.7802C56.0163 56.5046 55.0802 56.2442 54.0849 56.0116C53.7733 55.9383 53.4593 56.1325 53.3872 56.4465C53.3139 56.7593 53.5081 57.0709 53.8221 57.1453C54.5535 57.3151 55.257 57.5011 55.9256 57.6965C55.8198 57.7907 55.7163 57.8895 55.6081 57.9825C55.3779 58.1825 55.1407 58.3721 54.9035 58.5628C53.7779 59.4628 52.5814 60.2697 51.3151 60.9546C51.2907 60.9686 51.2663 60.9825 51.2407 60.9965C50.7651 61.2511 50.2802 61.4918 49.7872 61.7139C49.7767 61.7186 49.7651 61.7232 49.7546 61.729C48.4837 62.3023 47.157 62.7523 45.7965 63.0976C46.5163 62.607 47.2151 62.0337 47.8826 61.3604C48.1081 61.1337 48.107 60.7651 47.8791 60.5383C47.6512 60.3139 47.2837 60.3163 47.057 60.543C45.0872 62.529 42.8581 63.6407 40.5814 63.8058V50.4651C40.5814 50.1442 40.3209 49.8837 40 49.8837C39.6791 49.8837 39.4186 50.1442 39.4186 50.4651V54.5442C35.886 54.5709 32.4756 54.85 29.357 55.35C28.6081 53.8453 27.957 52.1825 27.4407 50.3686C27.3523 50.0593 27.0279 49.8767 26.7221 49.9686C26.4128 50.0558 26.2337 50.3779 26.3221 50.686C26.8244 52.4511 27.4407 54.0744 28.1442 55.5546C26.336 55.8872 24.6453 56.2988 23.1058 56.7825C21.2465 54.9209 19.6756 52.7511 18.5046 50.3174C18.3651 50.0279 18.0174 49.9058 17.7291 50.0465C17.4395 50.1849 17.3174 50.5325 17.457 50.8221C18.5965 53.1907 20.1012 55.3186 21.8698 57.1756L21.8337 57.1872L22.5186 57.8581C22.543 57.8825 22.5698 57.9011 22.5942 57.9256C23.0581 58.3744 23.5419 58.7988 24.0384 59.2093C24.3419 59.4628 24.6535 59.7 24.9663 59.936C25.1639 60.0849 25.3628 60.2302 25.5651 60.3732C26.8663 61.3 28.243 62.093 29.6826 62.7477C29.7209 62.7651 29.7593 62.7837 29.7977 62.8011C30.293 63.0232 30.793 63.229 31.3012 63.4186C31.386 63.45 31.4721 63.4779 31.5581 63.5081C32.4105 63.8151 33.2791 64.0744 34.164 64.286C34.3756 64.3384 34.5849 64.3977 34.7977 64.443C35.1372 64.5151 35.4779 64.5709 35.8198 64.629C36.2302 64.7 36.643 64.7593 37.0581 64.8093C37.3244 64.8407 37.5907 64.8744 37.8593 64.8965C38.5709 64.9593 39.2826 65 40 65C40.7186 65 41.4302 64.9581 42.1384 64.8965C42.4058 64.8732 42.6709 64.8407 42.9384 64.8093C43.357 64.7593 43.7721 64.6977 44.186 64.6279C44.5256 64.5709 44.8628 64.5139 45.1977 64.4442C45.4337 64.393 45.6651 64.3279 45.9 64.2709C46.7558 64.0639 47.5953 63.8116 48.4209 63.5163C48.5198 63.4814 48.6209 63.4476 48.7198 63.4104C49.2186 63.2256 49.7093 63.0221 50.1942 62.8046C50.2535 62.7779 50.3116 62.7488 50.3709 62.7221C51.786 62.0732 53.1395 61.293 54.4209 60.3814C54.6372 60.229 54.8512 60.0732 55.0616 59.9139C55.3639 59.6849 55.6651 59.4546 55.9581 59.2116C56.4523 58.8023 56.9337 58.379 57.3965 57.9325C57.4232 57.907 57.4523 57.8849 57.4791 57.8593L58.1639 57.1895L58.1279 57.1779C59.9058 55.3116 61.4186 53.1709 62.5605 50.7849C62.7 50.493 62.5779 50.1465 62.2872 50.007ZM39.4186 55.707V63.8011C35.8012 63.536 32.4 60.8256 29.9302 56.4325C32.8791 55.9814 36.093 55.7325 39.4186 55.707ZM34.157 63.0849C32.2721 62.6023 30.4546 61.9058 28.7535 60.993C28.7512 60.9907 28.7488 60.9895 28.7453 60.9883C27.4512 60.2918 26.2291 59.4697 25.0826 58.55C24.8581 58.3686 24.6326 58.1883 24.4128 57.9988C24.2977 57.9 24.1884 57.7953 24.0756 57.6942C25.4942 57.279 27.0477 56.9302 28.6849 56.6407C30.193 59.4674 32.064 61.6535 34.157 63.0849Z" fill="white"></path><path d="M43.4023 55.9395C43.6721 55.9395 43.9267 55.8488 44.1384 55.6733L45.4314 54.6093L47.7047 58.5465C47.9116 58.9058 48.2977 59.1279 48.7116 59.1279C48.9163 59.1279 49.1174 59.0733 49.293 58.9709L51.307 57.8093C51.5756 57.6535 51.7674 57.4023 51.8488 57.1035C51.9291 56.8035 51.8872 56.4907 51.7326 56.2209L49.4593 52.2837L51.0291 51.6953C51.4454 51.5395 51.7326 51.1674 51.7779 50.7244C51.8233 50.2814 51.6163 49.8593 51.2395 49.6209L43.6919 44.8884C43.2361 44.6 42.6058 44.6802 42.2349 45.0663C42.0151 45.2942 41.9 45.5953 41.9128 45.914L42.2395 54.8174C42.2605 55.4477 42.7721 55.9395 43.4023 55.9395ZM50.6198 50.607L48.4081 51.4349C48.2477 51.4953 48.1221 51.6221 48.0651 51.7837C48.0081 51.9453 48.0233 52.1233 48.1093 52.2709L50.7256 56.8023L48.7105 57.9651L46.0942 53.4337C46.0081 53.286 45.8628 53.1826 45.6942 53.1523C45.6605 53.1465 45.6256 53.143 45.5907 53.143C45.457 53.143 45.3256 53.1895 45.2209 53.2756L43.3988 54.7756L43.0721 45.8733L50.6198 50.607Z" fill="white"></path></svg> 